<svg width="50" height="51" viewBox="0 0 50 51" fill="none" xmlns="http://www.w3.org/2000/svg">
<path d="M22.6561 1.01598C17.7921 1.48574 12.9673 3.47243 9.18967 6.54543C8.07399 7.44581 6.31239 9.22698 5.43159 10.3329C3.19045 13.1416 1.35056 16.9389 0.587199 20.3446C0.107653 22.4781 0 23.5253 0 25.9719C0 28.4186 0.107653 29.4658 0.587199 31.5993C1.36034 35.0735 3.24917 38.9295 5.5686 41.7774C6.46898 42.8931 8.25015 44.6547 9.35604 45.5354C12.1648 47.7766 15.962 49.6165 19.3678 50.3798C21.5013 50.8594 22.5484 50.967 24.9951 50.967C27.4418 50.967 28.4889 50.8594 30.6224 50.3798C33.1767 49.8122 36.5238 48.3834 38.7258 46.9252C42.5328 44.3904 45.459 41.063 47.4653 36.9819C48.6886 34.4863 49.3834 32.2452 49.8238 29.3973C50.0587 27.8216 50.0587 24.1223 49.8238 22.5466C49.3834 19.6987 48.6886 17.4575 47.4653 14.962C46.1538 12.3 44.6956 10.2644 42.5915 8.18959C40.5265 6.14418 38.6377 4.80341 36.0051 3.51157C33.5389 2.29803 31.2488 1.5836 28.5183 1.16278C27.2852 0.97683 23.9381 0.898537 22.6561 1.01598ZM28.1268 3.42349C33.0985 4.1477 37.5905 6.38885 41.0844 9.88268C44.5978 13.3863 46.7704 17.7511 47.5631 22.8891C47.6806 23.6427 47.7295 24.5724 47.7295 25.9719C47.7295 29.6713 46.9955 32.803 45.3807 36.0718C42.0239 42.8539 35.7898 47.346 28.0779 48.54C26.6001 48.765 23.3901 48.765 21.9123 48.54C16.7743 47.7472 12.4095 45.5746 8.90585 42.0612C5.39244 38.5576 3.21981 34.1927 2.42709 29.0547C2.202 27.5769 2.202 24.3669 2.42709 22.8891C2.83813 20.2761 3.51341 18.0741 4.60951 15.8721C7.90761 9.21719 14.1026 4.67618 21.5698 3.46264C23.4586 3.14947 26.1499 3.13968 28.1268 3.42349Z" fill="#4F4F4F"/>
<path d="M16.8722 14.8054C16.0207 15.0794 15.5412 15.3632 14.9638 15.9406C14.3864 16.518 14.0536 17.0954 13.7992 17.9371C13.6622 18.4069 13.6426 19.3562 13.6426 25.9719C13.6426 34.1242 13.6328 33.8796 14.1906 34.9952C14.494 35.5922 15.3748 36.473 15.9718 36.7764C17.0875 37.3342 16.8428 37.3245 24.9951 37.3245C33.1474 37.3245 32.9027 37.3342 34.0184 36.7764C34.6154 36.473 35.4962 35.5922 35.7996 34.9952C36.3574 33.8796 36.3476 34.1242 36.3476 25.9719C36.3476 17.8197 36.3574 18.0643 35.7996 16.9486C35.4962 16.3517 34.6154 15.4709 34.0184 15.1675C32.9027 14.5998 33.1572 14.6194 24.956 14.6292C17.9976 14.6292 17.3713 14.639 16.8722 14.8054ZM32.9223 19.7085V21.3722H31.2586H29.5948V19.7085V18.0448H31.2586H32.9223V19.7085ZM26.4142 21.6658C28.3226 22.3215 29.497 23.9657 29.497 25.9719C29.497 27.6161 28.714 29.0156 27.3341 29.867C25.9933 30.6891 23.9969 30.6891 22.6561 29.867C21.2762 29.0156 20.4932 27.6161 20.4932 25.9719C20.4932 23.995 21.6089 22.39 23.4782 21.6952C24.2709 21.4016 25.6019 21.3918 26.4142 21.6658ZM18.2032 25.9426C18.2032 27.3225 18.3598 28.0173 18.947 29.2015C19.7592 30.8359 21.4817 32.206 23.3314 32.6954C24.173 32.9205 25.7976 32.9205 26.6588 32.6954C28.4987 32.2158 30.231 30.8359 31.0433 29.2015C31.6402 27.988 31.7968 27.3225 31.7773 25.9426L31.7675 24.7975H32.9321H34.0967V29.0254C34.0967 33.077 34.0869 33.2826 33.8912 33.7034C33.6269 34.2906 33.3627 34.5646 32.7755 34.8386L32.2862 35.0735H24.9951H17.704L17.2147 34.8386C16.6275 34.5646 16.3633 34.2906 16.099 33.7034C15.9033 33.2826 15.8935 33.077 15.8935 29.0254V24.7975H17.0483H18.2032V25.9426Z" fill="#4F4F4F"/>
</svg>
