<svg width="50" height="51" viewBox="0 0 50 51" fill="none" xmlns="http://www.w3.org/2000/svg">
<path d="M22.6561 0.0555274C17.7921 0.525287 12.9673 2.51198 9.18967 5.58499C8.07399 6.48536 6.31239 8.26653 5.43159 9.37242C3.19045 12.1812 1.35056 15.9784 0.587199 19.3842C0.107653 21.5177 0 22.5648 0 25.0115C0 27.4581 0.107653 28.5053 0.587199 30.6388C1.36034 34.1131 3.24917 37.969 5.5686 40.8169C6.46898 41.9326 8.25015 43.6942 9.35604 44.575C12.1648 46.8161 15.962 48.656 19.3678 49.4194C21.5013 49.8989 22.5484 50.0066 24.9951 50.0066C27.4418 50.0066 28.4889 49.8989 30.6224 49.4194C33.1767 48.8518 36.5238 47.4229 38.7258 45.9647C42.5328 43.43 45.459 40.1025 47.4653 36.0215C48.6886 33.5259 49.3834 31.2847 49.8238 28.4368C50.0587 26.8612 50.0587 23.1618 49.8238 21.5862C49.3834 18.7382 48.6886 16.4971 47.4653 14.0015C46.1538 11.3395 44.6956 9.30391 42.5915 7.22914C40.5265 5.18373 38.6377 3.84296 36.0051 2.55112C33.5389 1.33758 31.2488 0.623153 28.5183 0.202327C27.2852 0.0163808 23.9381 -0.0619124 22.6561 0.0555274ZM28.1268 2.46304C33.0985 3.18726 37.5905 5.4284 41.0844 8.92223C44.5978 12.4259 46.7704 16.7907 47.5631 21.9287C47.6806 22.6823 47.7295 23.612 47.7295 25.0115C47.7295 28.7108 46.9955 31.8426 45.3807 35.1113C42.0239 41.8935 35.7898 46.3855 28.0779 47.5795C26.6001 47.8046 23.3901 47.8046 21.9123 47.5795C16.7743 46.7868 12.4095 44.6141 8.90585 41.1007C5.39244 37.5971 3.21981 33.2323 2.42709 28.0943C2.202 26.6165 2.202 23.4065 2.42709 21.9287C2.83813 19.3157 3.51341 17.1137 4.60951 14.9117C7.90761 8.25674 14.1026 3.71573 21.5698 2.50219C23.4586 2.18902 26.1499 2.17923 28.1268 2.46304Z" fill="#4F4F4F"/>
<path d="M23.9675 14.8432C20.9923 15.2738 18.7022 16.6439 17.2147 18.8948C16.559 19.8931 16.3437 20.4118 16.0794 21.6742C15.6194 23.886 16.1284 25.7063 17.6159 27.1841C18.1835 27.7518 18.6435 27.9866 19.035 27.9279C19.2111 27.9083 19.2894 27.7713 19.4265 27.2624C19.6809 26.3523 19.6613 26.0978 19.3188 25.677C18.8099 25.0702 18.6044 24.3264 18.5946 23.152C18.5848 21.9483 18.7022 21.4492 19.2601 20.3628C20.6694 17.5932 24.2121 16.3112 27.4907 17.3877C28.2344 17.6324 28.7238 17.926 29.311 18.5034C30.3679 19.531 30.7105 20.4509 30.7105 22.2223C30.7105 25.2953 29.5654 27.8007 27.7843 28.6423C26.6001 29.2002 25.7388 29.1121 24.9853 28.3487C24.5449 27.9181 24.31 27.4092 24.31 26.9199C24.31 26.8025 24.5547 25.8629 24.8483 24.8158C25.7095 21.7623 25.7388 21.5177 25.2299 20.7445C24.4959 19.619 23.1454 19.531 22.1276 20.5488C21.1195 21.5568 20.8357 23.0542 21.3349 24.62L21.5893 25.4127L20.7574 28.8087C19.7886 32.7234 19.6124 33.6531 19.6124 34.7981C19.6124 35.7279 19.7886 37.3133 19.906 37.5384C20.0919 37.8614 21.1195 36.4227 22.0591 34.5143C22.4016 33.8195 22.8224 32.4298 23.3607 30.1984C23.4194 29.9538 23.4781 29.7384 23.4879 29.7189C23.5075 29.6993 23.6739 29.8363 23.8598 30.0223C24.9168 31.0499 26.649 31.4217 28.3617 30.9814C31.1313 30.2767 33.0495 28.016 33.803 24.5711C34.6153 20.813 33.118 17.3975 29.9373 15.7827C28.4889 15.0487 25.6214 14.5985 23.9675 14.8432Z" fill="#4F4F4F"/>
</svg>
