<svg width="4745" height="1936" viewBox="0 0 4745 1936" fill="none" xmlns="http://www.w3.org/2000/svg">
<path d="M529.686 1047.25L259.772 1047.25L205.789 1275.18C201.79 1295.17 199.791 1311.17 199.791 1323.17C199.791 1339.16 201.79 1355.16 205.789 1371.15C213.787 1387.14 231.781 1395.14 259.772 1395.14H277.766L277.766 1431.13L55.8369 1431.13L55.8369 1395.14H73.8312C89.8261 1395.14 103.822 1391.14 115.818 1383.15C127.814 1371.15 135.811 1353.16 139.81 1329.16L373.736 411.456L463.707 381.465L691.634 1329.16C699.632 1353.16 709.629 1371.15 721.625 1383.15C733.621 1391.14 747.617 1395.14 763.611 1395.14H781.606L781.606 1431.13L523.688 1431.13L523.688 1395.14H547.68C571.673 1395.14 585.668 1391.14 589.667 1383.15C593.666 1371.15 595.665 1361.15 595.665 1353.16C595.665 1337.16 593.666 1323.17 589.667 1311.17L529.686 1047.25ZM403.726 513.423H397.728L271.768 1011.26L523.688 1011.26L403.726 513.423ZM882.251 759.345C902.245 759.345 922.238 757.346 942.232 753.347C962.226 749.348 978.221 743.35 990.217 735.353H1002.21L1002.21 837.32C1022.21 805.33 1044.2 783.337 1068.19 771.341C1092.18 755.346 1118.18 747.349 1146.17 747.349C1182.16 747.349 1210.15 755.346 1230.14 771.341C1250.13 783.337 1262.13 805.33 1266.13 837.32C1286.12 805.33 1308.12 783.337 1332.11 771.341C1360.1 755.346 1388.09 747.349 1416.08 747.349C1464.07 747.349 1496.06 761.344 1512.05 789.335C1532.04 817.326 1542.04 853.315 1542.04 897.301L1542.04 1353.16C1542.04 1369.15 1546.04 1381.15 1554.04 1389.14C1562.03 1393.14 1574.03 1395.14 1590.03 1395.14H1602.02V1431.13L1398.09 1431.13V1395.14H1410.08C1426.08 1395.14 1438.07 1393.14 1446.07 1389.14C1454.07 1381.15 1458.07 1369.15 1458.07 1353.16L1458.07 903.299C1458.07 859.313 1452.07 831.322 1440.07 819.326C1432.08 803.331 1418.08 795.333 1398.09 795.333C1370.1 795.333 1344.1 805.33 1320.11 825.324C1300.12 845.318 1284.12 873.309 1272.13 909.297L1272.13 1353.16C1272.13 1369.15 1276.13 1381.15 1284.12 1389.14C1292.12 1393.14 1304.12 1395.14 1320.11 1395.14H1332.11V1431.13L1128.17 1431.13V1395.14H1140.17C1156.16 1395.14 1168.16 1393.14 1176.16 1389.14C1184.15 1381.15 1188.15 1369.15 1188.15 1353.16L1188.15 903.299C1188.15 867.311 1184.15 841.319 1176.16 825.324C1168.16 805.33 1152.17 795.333 1128.17 795.333C1100.18 795.333 1074.19 805.33 1050.2 825.324C1030.2 845.318 1014.21 875.308 1002.21 915.295L1002.21 1353.16C1002.21 1369.15 1006.21 1381.15 1014.21 1389.14C1022.21 1393.14 1034.2 1395.14 1050.2 1395.14H1062.19V1431.13L858.259 1431.13L858.259 1395.14H870.255C886.25 1395.14 898.246 1393.14 906.243 1389.14C914.241 1381.15 918.24 1369.15 918.24 1353.16L918.24 831.322C918.24 819.326 916.24 811.328 912.242 807.33C908.243 799.332 900.245 795.333 888.249 795.333L864.257 795.333V759.345L882.251 759.345Z" fill="#4A4A45"/>
<path d="M3184.02 1431.13V1395.14L3214.01 1395.14C3234.01 1395.14 3248 1391.14 3256 1383.15C3264 1375.15 3268 1363.15 3268 1347.16L3268 831.322C3268 819.326 3266 811.328 3262 807.33C3258 799.332 3250 795.333 3238 795.333H3190.02V759.345H3232.01C3252 759.345 3269.99 757.346 3285.99 753.347C3305.98 749.348 3323.98 741.351 3339.97 729.354H3351.97L3351.97 867.311C3387.96 827.323 3423.95 797.333 3459.93 777.339C3495.92 757.346 3533.91 747.349 3573.9 747.349C3641.88 747.349 3691.86 765.343 3723.85 801.332C3755.84 837.32 3771.83 891.303 3771.83 963.28L3771.83 1347.16C3771.83 1363.15 3775.83 1375.15 3783.83 1383.15C3795.83 1391.14 3809.82 1395.14 3825.82 1395.14H3855.81V1431.13L3603.89 1431.13V1395.14H3633.88C3653.87 1395.14 3667.87 1391.14 3675.87 1383.15C3683.86 1375.15 3687.86 1363.15 3687.86 1347.16L3687.86 945.286C3687.86 897.301 3677.86 861.312 3657.87 837.32C3637.88 809.329 3607.89 795.333 3567.9 795.333C3531.91 795.333 3493.92 807.33 3453.94 831.322C3417.95 855.314 3383.96 889.304 3351.97 933.29L3351.97 1347.16C3351.97 1363.15 3355.97 1375.15 3363.96 1383.15C3375.96 1391.14 3389.96 1395.14 3405.95 1395.14H3435.94V1431.13L3184.02 1431.13ZM4142.39 981.274C4142.39 1029.26 4156.39 1071.25 4184.38 1107.23C4212.37 1139.22 4250.36 1155.22 4298.34 1155.22C4350.33 1155.22 4388.32 1141.22 4412.31 1113.23C4440.3 1081.24 4454.29 1037.26 4454.29 981.274C4454.29 913.296 4438.3 865.311 4406.31 837.32C4378.32 805.33 4342.33 789.335 4298.34 789.335C4254.36 789.335 4216.37 805.33 4184.38 837.32C4156.39 865.311 4142.39 913.296 4142.39 981.274ZM4436.3 1305.17C4496.28 1313.17 4540.27 1331.16 4568.26 1359.15C4596.25 1383.15 4610.24 1417.14 4610.24 1461.12C4610.24 1521.1 4584.25 1569.09 4532.27 1605.08C4484.28 1641.06 4406.31 1659.06 4298.34 1659.06C4214.37 1659.06 4146.39 1641.06 4094.41 1605.08C4042.43 1573.09 4016.43 1535.1 4016.43 1491.11C4016.43 1463.12 4026.43 1435.13 4046.42 1407.14C4066.42 1379.15 4098.41 1357.15 4142.39 1341.16C4118.4 1329.16 4098.41 1317.17 4082.41 1305.17C4070.42 1289.18 4064.42 1271.18 4064.42 1251.19C4064.42 1227.2 4072.42 1207.2 4088.41 1191.21C4104.41 1171.21 4124.4 1155.22 4148.39 1143.22C4124.4 1123.23 4102.41 1099.24 4082.41 1071.25C4066.42 1043.25 4058.42 1013.26 4058.42 981.274C4058.42 921.293 4078.41 869.31 4118.4 825.324C4162.39 777.339 4222.37 753.347 4298.34 753.347C4330.33 753.347 4360.32 757.346 4388.32 765.343C4420.31 773.34 4446.3 787.336 4466.29 807.33C4494.28 787.336 4518.27 773.34 4538.27 765.343C4562.26 753.347 4582.25 747.349 4598.25 747.349C4618.24 747.349 4632.24 755.346 4640.24 771.341C4648.23 783.337 4652.23 795.333 4652.23 807.33C4652.23 823.325 4648.23 837.32 4640.24 849.316C4636.24 857.314 4626.24 861.312 4610.24 861.312C4598.25 861.312 4588.25 859.313 4580.25 855.314C4572.26 847.317 4566.26 837.32 4562.26 825.324C4558.26 813.328 4548.26 809.329 4532.27 813.328C4520.27 813.328 4506.28 819.326 4490.28 831.322C4506.28 847.317 4518.27 869.31 4526.27 897.301C4534.27 925.292 4538.27 953.283 4538.27 981.274C4538.27 1029.26 4518.27 1077.24 4478.29 1125.23C4442.3 1169.21 4382.32 1191.21 4298.34 1191.21C4274.35 1191.21 4252.36 1189.21 4232.37 1185.21C4212.37 1177.21 4196.38 1169.21 4184.38 1161.22C4168.39 1169.21 4156.39 1179.21 4148.39 1191.21C4140.39 1203.2 4136.4 1213.2 4136.4 1221.2C4136.4 1237.19 4140.39 1249.19 4148.39 1257.19C4156.39 1265.18 4168.39 1269.18 4184.38 1269.18C4236.36 1277.18 4282.35 1285.18 4322.34 1293.17C4366.32 1297.17 4404.31 1301.17 4436.3 1305.17ZM4190.38 1353.16C4154.39 1369.15 4128.4 1389.14 4112.4 1413.14C4100.41 1433.13 4094.41 1459.12 4094.41 1491.11C4094.41 1523.1 4112.4 1553.09 4148.39 1581.08C4184.38 1609.07 4238.36 1623.07 4310.34 1623.07C4378.32 1623.07 4432.3 1611.07 4472.29 1587.08C4512.28 1567.09 4532.27 1535.1 4532.27 1491.11C4532.27 1463.12 4526.27 1441.13 4514.28 1425.13C4506.28 1409.14 4492.28 1399.14 4472.29 1395.14C4432.3 1387.14 4388.32 1379.15 4340.33 1371.15C4292.35 1367.15 4242.36 1361.15 4190.38 1353.16Z" fill="#4A4A45"/>
<path d="M2390.42 1812.55C2390.42 1810.13 2390.82 1808.51 2391.63 1807.7C2391.63 1806.89 2392.04 1805.27 2392.85 1802.84C2393.66 1799.6 2392.04 1795.96 2387.99 1791.91C2383.94 1787.05 2377.06 1784.62 2367.35 1784.62C2355.2 1784.62 2344.68 1790.7 2335.77 1802.84C2327.68 1814.17 2323.63 1829.56 2323.63 1848.99C2323.63 1866.8 2327.27 1881.37 2334.56 1892.7C2341.84 1903.23 2353.99 1908.49 2370.99 1908.49C2382.32 1908.49 2391.63 1904.85 2398.92 1897.56C2407.02 1890.27 2412.68 1881.77 2415.92 1872.06L2421.99 1874.49C2418.75 1886.63 2412.68 1897.16 2403.78 1906.06C2394.87 1914.16 2382.73 1918.2 2367.35 1918.2C2347.92 1918.2 2332.53 1912.13 2321.2 1899.99C2309.87 1887.85 2304.2 1870.44 2304.2 1847.77C2304.2 1827.53 2310.27 1810.94 2322.41 1797.98C2334.56 1784.22 2350.35 1777.34 2369.78 1777.34C2383.54 1777.34 2394.06 1780.98 2401.35 1788.27C2409.44 1795.55 2413.49 1802.84 2413.49 1810.13C2413.49 1814.98 2412.28 1818.63 2409.85 1821.06C2408.23 1822.67 2405.4 1823.48 2401.35 1823.48C2398.11 1823.48 2395.28 1822.67 2392.85 1821.06C2391.23 1818.63 2390.42 1815.79 2390.42 1812.55ZM2544.64 1817.41C2552.73 1804.46 2561.23 1794.74 2570.14 1788.27C2579.85 1780.98 2589.57 1777.34 2599.28 1777.34C2607.38 1777.34 2613.45 1779.36 2617.5 1783.41C2622.35 1786.65 2624.78 1790.7 2624.78 1795.55C2624.78 1799.6 2623.57 1802.84 2621.14 1805.27C2619.52 1807.7 2616.69 1808.91 2612.64 1808.91C2608.59 1808.91 2605.35 1807.7 2602.92 1805.27C2601.31 1802.84 2600.9 1799.6 2601.71 1795.55C2601.71 1793.13 2601.31 1791.1 2600.5 1789.48C2599.69 1787.86 2597.26 1787.05 2593.21 1787.05C2586.73 1787.05 2578.64 1791.1 2568.92 1799.2C2560.02 1807.29 2551.92 1818.63 2544.64 1833.2V1898.77C2544.64 1902.01 2545.44 1904.44 2547.06 1906.06C2549.49 1907.68 2552.33 1908.49 2555.56 1908.49H2582.28V1915.78H2492.42V1908.49H2516.7C2520.75 1908.49 2523.59 1907.68 2525.21 1906.06C2526.82 1904.44 2527.63 1902.01 2527.63 1898.77V1797.98C2527.63 1794.74 2526.82 1792.32 2525.21 1790.7C2523.59 1788.27 2520.75 1787.05 2516.7 1787.05H2493.63V1779.77H2503.35C2509.01 1779.77 2515.49 1779.36 2522.78 1778.55C2530.87 1776.93 2536.94 1775.31 2540.99 1773.7H2544.64V1817.41ZM2796 1840.49C2796.81 1822.67 2793.57 1809.32 2786.29 1800.41C2779.81 1790.7 2770.9 1785.84 2759.57 1785.84C2747.43 1785.84 2737.31 1790.7 2729.21 1800.41C2721.92 1810.13 2718.28 1823.48 2718.28 1840.49H2796ZM2718.28 1847.77C2718.28 1869.63 2722.33 1885.42 2730.42 1895.13C2739.33 1904.04 2750.66 1908.49 2764.43 1908.49C2774.95 1908.49 2783.86 1905.66 2791.14 1899.99C2798.43 1893.51 2803.69 1885.82 2806.93 1876.92L2813 1879.34C2810.57 1888.25 2804.91 1897.16 2796 1906.06C2787.9 1914.16 2776.57 1918.2 2762 1918.2C2743.38 1918.2 2728 1912.13 2715.85 1899.99C2704.52 1887.85 2698.85 1870.44 2698.85 1847.77C2698.85 1827.53 2704.52 1810.94 2715.85 1797.98C2728 1784.22 2742.57 1777.34 2759.57 1777.34C2774.95 1777.34 2788.31 1782.6 2799.64 1793.13C2810.98 1803.65 2816.64 1821.87 2816.64 1847.77H2718.28ZM2935.64 1916.99C2921.07 1916.99 2909.74 1913.75 2901.64 1907.28C2893.55 1899.99 2889.5 1891.89 2889.5 1882.99C2889.5 1868.42 2895.57 1856.68 2907.71 1847.77C2920.67 1838.06 2945.76 1831.18 2983 1827.13V1812.55C2983 1804.46 2980.98 1797.98 2976.93 1793.13C2973.69 1787.46 2965.6 1784.62 2952.64 1784.62C2938.88 1784.62 2929.17 1787.05 2923.5 1791.91C2917.83 1795.96 2915.81 1800.41 2917.43 1805.27C2918.24 1806.89 2918.64 1808.51 2918.64 1810.13C2918.64 1811.75 2917.83 1813.77 2916.21 1816.2C2915.4 1818.63 2912.57 1819.84 2907.71 1819.84C2904.48 1819.84 2901.64 1819.03 2899.21 1817.41C2897.59 1814.98 2896.78 1811.75 2896.78 1807.7C2896.78 1800.41 2902.05 1793.53 2912.57 1787.05C2923.1 1780.58 2936.05 1777.34 2951.43 1777.34C2967.62 1777.34 2979.77 1780.58 2987.86 1787.05C2995.96 1792.72 3000 1801.22 3000 1812.55V1892.7C3000 1899.18 3000.41 1903.23 3001.22 1904.85C3002.84 1905.66 3005.27 1906.06 3008.51 1906.06C3012.55 1906.06 3015.39 1904.44 3017.01 1901.2C3018.63 1897.16 3019.43 1891.89 3019.43 1885.42H3025.51C3025.51 1896.75 3023.48 1904.85 3019.43 1909.7C3015.39 1913.75 3010.12 1915.78 3003.65 1915.78C2997.98 1915.78 2993.53 1914.56 2990.29 1912.13C2987.05 1909.7 2984.62 1905.66 2983 1899.99C2974.91 1905.66 2967.22 1910.11 2959.93 1913.35C2953.45 1915.78 2945.36 1916.99 2935.64 1916.99ZM2910.14 1879.34C2910.14 1886.63 2912.17 1893.51 2916.21 1899.99C2921.07 1905.66 2928.36 1908.49 2938.07 1908.49C2945.36 1908.49 2952.64 1907.28 2959.93 1904.85C2967.22 1901.61 2974.91 1897.16 2983 1891.49V1834.41C2955.48 1837.65 2936.45 1843.32 2925.93 1851.41C2915.4 1858.7 2910.14 1868.01 2910.14 1879.34ZM3145.72 1876.92C3145.72 1888.25 3147.74 1895.94 3151.79 1899.99C3155.84 1904.04 3161.91 1906.06 3170.01 1906.06C3178.1 1906.06 3184.58 1903.63 3189.44 1898.77C3194.29 1893.11 3197.53 1885.42 3199.15 1875.7L3205.22 1878.13C3203.6 1889.46 3199.15 1898.77 3191.87 1906.06C3185.39 1913.35 3176.48 1916.99 3165.15 1916.99C3153.01 1916.99 3143.7 1913.35 3137.22 1906.06C3131.55 1898.77 3128.72 1887.44 3128.72 1872.06V1787.05H3092.29V1779.77H3102C3111.72 1779.77 3119.41 1776.93 3125.08 1771.27C3131.55 1764.79 3135.6 1755.08 3137.22 1742.12L3138.43 1732.41H3145.72V1779.77H3194.29V1787.05H3145.72V1876.92ZM3338.8 1797.98C3338.8 1794.74 3337.99 1792.32 3336.37 1790.7C3334.75 1788.27 3331.91 1787.05 3327.87 1787.05H3302.36V1779.77H3314.51C3321.79 1779.77 3328.68 1779.36 3335.15 1778.55C3341.63 1776.93 3347.7 1774.5 3353.37 1771.27H3355.8V1898.77C3355.8 1902.01 3356.61 1904.44 3358.23 1906.06C3360.65 1907.68 3363.49 1908.49 3366.73 1908.49H3392.23V1915.78H3302.36V1908.49H3327.87C3331.91 1908.49 3334.75 1907.68 3336.37 1906.06C3337.99 1904.44 3338.8 1902.01 3338.8 1898.77V1797.98ZM3348.51 1705.69C3352.56 1705.69 3356.2 1707.31 3359.44 1710.55C3362.68 1712.98 3364.3 1716.22 3364.3 1720.26C3364.3 1724.31 3362.68 1727.95 3359.44 1731.19C3356.2 1734.43 3352.56 1736.05 3348.51 1736.05C3344.46 1736.05 3340.82 1734.43 3337.58 1731.19C3334.34 1727.95 3332.72 1724.31 3332.72 1720.26C3332.72 1716.22 3334.34 1712.98 3337.58 1710.55C3340.82 1707.31 3344.46 1705.69 3348.51 1705.69ZM3545.23 1916.99H3537.94L3496.65 1797.98C3495.85 1794.74 3494.23 1792.32 3491.8 1790.7C3489.37 1788.27 3486.54 1787.05 3483.3 1787.05H3477.22V1779.77H3529.44V1787.05H3524.59C3519.73 1787.05 3516.89 1787.86 3516.08 1789.48C3515.27 1791.1 3514.87 1792.72 3514.87 1794.34C3514.87 1797.58 3515.27 1800.41 3516.08 1802.84L3545.23 1887.85H3547.66L3576.8 1804.05C3578.42 1800.01 3579.23 1797.17 3579.23 1795.55C3579.23 1794.74 3578.42 1793.13 3576.8 1790.7C3575.18 1788.27 3571.95 1787.05 3567.09 1787.05H3564.66V1779.77H3608.38V1787.05H3605.95C3601.09 1787.05 3597.04 1788.67 3593.8 1791.91C3591.38 1794.34 3588.95 1798.39 3586.52 1804.05L3545.23 1916.99ZM3779.59 1840.49C3780.4 1822.67 3777.16 1809.32 3769.88 1800.41C3763.4 1790.7 3754.5 1785.84 3743.16 1785.84C3731.02 1785.84 3720.9 1790.7 3712.8 1800.41C3705.52 1810.13 3701.87 1823.48 3701.87 1840.49H3779.59ZM3701.87 1847.77C3701.87 1869.63 3705.92 1885.42 3714.02 1895.13C3722.92 1904.04 3734.26 1908.49 3748.02 1908.49C3758.54 1908.49 3767.45 1905.66 3774.74 1899.99C3782.02 1893.51 3787.28 1885.82 3790.52 1876.92L3796.59 1879.34C3794.17 1888.25 3788.5 1897.16 3779.59 1906.06C3771.5 1914.16 3760.16 1918.2 3745.59 1918.2C3726.97 1918.2 3711.59 1912.13 3699.45 1899.99C3688.11 1887.85 3682.44 1870.44 3682.44 1847.77C3682.44 1827.53 3688.11 1810.94 3699.45 1797.98C3711.59 1784.22 3726.16 1777.34 3743.16 1777.34C3758.54 1777.34 3771.9 1782.6 3783.24 1793.13C3794.57 1803.65 3800.24 1821.87 3800.24 1847.77H3701.87ZM3890.09 1814.98C3890.09 1802.84 3894.54 1793.53 3903.45 1787.05C3913.16 1780.58 3924.5 1777.34 3937.45 1777.34C3944.74 1777.34 3951.62 1778.15 3958.1 1779.77C3964.57 1782.2 3969.03 1783.41 3971.45 1783.41C3973.88 1783.41 3975.91 1783.01 3977.53 1782.2C3979.15 1781.39 3981.17 1779.77 3983.6 1777.34L3988.46 1817.41L3981.17 1818.63C3977.93 1808.1 3972.26 1800.01 3964.17 1794.34C3956.88 1787.86 3948.38 1784.62 3938.67 1784.62C3928.14 1784.62 3919.64 1786.65 3913.16 1790.7C3907.5 1794.74 3904.66 1800.41 3904.66 1807.7C3904.66 1814.17 3905.88 1819.44 3908.31 1823.48C3911.55 1826.72 3916.81 1829.15 3924.09 1830.77C3929.76 1833.2 3937.05 1835.63 3945.95 1838.06C3954.05 1841.29 3961.74 1844.53 3969.03 1847.77C3975.5 1851.01 3980.76 1855.46 3984.81 1861.13C3989.67 1865.99 3992.1 1871.65 3992.1 1878.13C3992.1 1890.27 3987.65 1899.99 3978.74 1907.28C3970.64 1913.75 3958.5 1916.99 3942.31 1916.99C3931.79 1916.99 3924.09 1915.78 3919.24 1913.35C3913.57 1911.73 3909.12 1910.92 3905.88 1910.92C3903.45 1910.92 3900.62 1911.73 3897.38 1913.35C3894.95 1914.16 3892.12 1915.37 3888.88 1916.99L3885.23 1872.06L3892.52 1870.84C3894.95 1883.8 3900.21 1893.51 3908.31 1899.99C3916.4 1906.47 3927.74 1909.7 3942.31 1909.7C3953.64 1909.7 3962.14 1907.68 3967.81 1903.63C3974.29 1899.58 3977.53 1893.51 3977.53 1885.42C3977.53 1879.75 3975.91 1875.3 3972.67 1872.06C3969.43 1868.01 3966.19 1865.18 3962.95 1863.56C3954.86 1860.32 3945.95 1856.68 3936.24 1852.63C3926.52 1849.39 3918.02 1846.15 3910.74 1842.91C3903.45 1839.68 3898.19 1835.63 3894.95 1830.77C3891.71 1825.91 3890.09 1820.65 3890.09 1814.98Z" fill="#4A4A45"/>
<path d="M2017.41 1583.75C1766.01 1460.08 1651.82 1318.14 1795.2 849.162C1938.58 380.187 2339.47 87.0293 2690.61 194.384C3041.76 301.74 3164.45 475.831 3021.08 944.781C2877.71 1413.73 2368.55 1691.1 2017.41 1583.75Z" fill="#E2C8AA"/>
</svg>
