<svg width="1961" height="715" fill="none" xmlns="http://www.w3.org/2000/svg">
  <path d="M784.898 625.189c-99.242-48.819-144.32-104.85-87.72-289.98C753.777 150.08 912.032 34.355 1050.65 76.734c138.61 42.379 187.05 111.102 130.45 296.221-56.6 185.12-257.588 294.613-396.202 252.234Z" fill="#E2C8AA"/>
  <path d="M382.995 422.277c.418 0 .627.313.627.941 0 .627-.209.941-.627.941-1.883 0-4.916-.104-9.099-.314-3.974-.209-6.903-.313-8.785-.313-2.197 0-5.073.104-8.629.313-3.347.21-5.857.314-7.53.314-.418 0-.628-.314-.628-.941 0-.628.21-.941.628-.941 4.288 0 7.373-.366 9.256-1.099 1.882-.836 2.824-2.196 2.824-4.078 0-1.465-.576-3.504-1.726-6.119l-18.669-40.004h-29.964l-14.119 33.886c-1.464 3.556-2.196 6.484-2.196 8.785 0 3.033 1.255 5.23 3.765 6.589 2.51 1.36 6.432 2.04 11.766 2.04.523 0 .784.313.784.941 0 .627-.261.941-.784.941-1.883 0-4.602-.104-8.158-.314-3.974-.209-7.426-.313-10.354-.313-2.615 0-5.7.104-9.256.313-3.138.21-5.7.314-7.687.314-.523 0-.784-.314-.784-.941 0-.628.261-.941.784-.941 2.928 0 5.386-.523 7.373-1.569 2.092-1.046 4.027-2.929 5.805-5.648 1.882-2.719 3.87-6.589 5.961-11.609l32.788-78.911c.209-.313.523-.47.942-.47.522 0 .836.157.941.47l36.396 78.127c2.405 5.334 4.549 9.412 6.432 12.236 1.883 2.72 3.713 4.654 5.491 5.805 1.882 1.046 4.026 1.569 6.432 1.569Zm-71.067-54.281h27.454l-14.59-31.062-12.864 31.062Zm197.158 54.281c.314 0 .471.313.471.941 0 .627-.157.941-.471.941-3.242 0-5.805-.052-7.687-.157l-10.511-.157-9.727.157c-1.568.105-3.765.157-6.589.157-.209 0-.313-.314-.313-.941 0-.628.104-.941.313-.941 3.661 0 6.328-.262 8.001-.785 1.778-.627 2.929-1.673 3.452-3.137.627-1.465.836-3.766.627-6.903l-2.667-72.949-36.71 84.558c-.209.418-.627.628-1.255.628-.523 0-.993-.21-1.412-.628L406.33 339.13l-.157-.314-1.255 69.028c-.105 5.438.784 9.203 2.667 11.295 1.882 2.092 5.386 3.138 10.511 3.138.209 0 .313.313.313.941 0 .627-.104.941-.313.941-2.929 0-5.177-.052-6.746-.157l-8.472-.157-7.687.157c-1.36.105-3.399.157-6.118.157-.209 0-.314-.314-.314-.941 0-.628.105-.941.314-.941 4.392 0 7.478-1.046 9.256-3.138 1.882-2.196 2.876-5.961 2.98-11.295l1.569-74.361c-3.242-3.661-7.478-5.491-12.707-5.491-.209 0-.314-.314-.314-.942 0-.627.105-.941.314-.941l5.334.157c1.046.105 2.405.157 4.079.157 1.673 0 3.085-.052 4.236-.157 1.15-.105 2.039-.157 2.666-.157 1.465 0 2.615.523 3.452 1.569.837.941 2.092 3.138 3.765 6.589l35.298 76.244 35.141-80.48c.523-1.15 1.203-2.092 2.04-2.824.941-.732 1.83-1.098 2.666-1.098.419 0 1.099.052 2.04.157.941.105 2.249.157 3.922.157l7.06-.157c1.045-.105 2.666-.157 4.863-.157.209 0 .314.314.314.941 0 .628-.105.942-.314.942-5.439 0-9.308.732-11.609 2.196-2.197 1.36-3.243 4.131-3.138 8.315l2.981 72.949c.104 3.242.47 5.595 1.098 7.059.732 1.465 2.039 2.458 3.922 2.981 1.987.523 5.02.785 9.099.785Zm59.862 3.765c-9.727 0-18.407-2.249-26.042-6.746-7.53-4.602-13.387-10.773-17.571-18.512-4.079-7.844-6.118-16.368-6.118-25.571 0-10.773 2.719-19.976 8.158-27.611 5.438-7.74 12.393-13.544 20.865-17.414 8.576-3.87 17.309-5.805 26.199-5.805 9.935 0 18.668 2.354 26.199 7.06 7.53 4.602 13.282 10.72 17.257 18.355 4.078 7.635 6.118 15.74 6.118 24.316 0 9.518-2.51 18.251-7.53 26.199-5.021 7.949-11.766 14.224-20.238 18.826-8.367 4.602-17.466 6.903-27.297 6.903Zm5.648-3.138c7.425 0 14.119-1.726 20.08-5.177 5.962-3.451 10.668-8.524 14.119-15.217 3.452-6.694 5.178-14.695 5.178-24.003 0-9.831-1.935-18.564-5.805-26.199-3.765-7.739-9.151-13.753-16.159-18.041-6.902-4.288-14.956-6.432-24.159-6.432-12.132 0-21.597 3.765-28.395 11.295-6.799 7.53-10.198 17.78-10.198 30.749 0 9.726 1.883 18.668 5.648 26.826 3.87 8.053 9.256 14.433 16.159 19.14 6.902 4.706 14.746 7.059 23.532 7.059Zm165.528-96.795c.313 0 .47.314.47.941 0 .628-.157.942-.47.942-4.498 0-7.687 1.098-9.57 3.294-1.778 2.197-2.667 5.962-2.667 11.296v83.303c0 .209-.261.366-.784.47-.523.105-.889.053-1.099-.156l-70.909-87.226-2.667-2.98v71.851c0 5.334.889 9.099 2.667 11.295 1.778 2.092 4.863 3.138 9.256 3.138.313 0 .47.313.47.941 0 .627-.157.941-.47.941-2.51 0-4.445-.052-5.805-.157l-7.53-.157-7.687.157c-1.36.105-3.399.157-6.119.157-.209 0-.313-.314-.313-.941 0-.628.104-.941.313-.941 4.498 0 7.583-1.046 9.256-3.138 1.674-2.092 2.51-5.857 2.51-11.295v-75.146c-3.66-3.137-7.425-4.706-11.295-4.706-.314 0-.471-.314-.471-.942 0-.627.157-.941.471-.941l5.648.157c1.15.105 2.771.157 4.863.157 1.778 0 3.242-.052 4.393-.157 1.15-.105 2.039-.157 2.667-.157.732 0 1.307.209 1.725.628.523.313 1.098 1.046 1.726 2.196a48.603 48.603 0 0 0 3.765 5.334l61.968 77.028v-68.713c0-5.334-.837-9.099-2.51-11.296-1.674-2.196-4.707-3.294-9.099-3.294-.21 0-.314-.314-.314-.942 0-.627.104-.941.314-.941l5.961.157c3.138.209 5.648.314 7.53.314 1.778 0 4.341-.105 7.687-.314l6.119-.157Zm66.22 99.933c-11.4 0-21.336-2.197-29.807-6.589-8.367-4.393-14.799-10.354-19.296-17.885-4.393-7.53-6.589-15.949-6.589-25.257 0-10.145 2.562-19.14 7.687-26.984 5.229-7.844 12.341-13.962 21.336-18.355 9.099-4.392 19.348-6.589 30.748-6.589 5.125 0 9.936.523 14.433 1.569 4.602 1.046 8.419 2.51 11.452 4.393.732.523 1.151.994 1.255 1.412.209.314.314.732.314 1.255.105.418.157.732.157.941l1.882 16.473c0 .313-.313.523-.941.627-.523 0-.837-.157-.941-.471-1.987-7.425-5.909-13.073-11.766-16.943-5.857-3.974-13.283-5.961-22.277-5.961-13.806 0-24.526 3.817-32.16 11.452-7.635 7.635-11.453 18.198-11.453 31.69 0 10.04 2.144 19.087 6.432 27.14 4.288 7.949 10.198 14.172 17.728 18.669 7.635 4.497 16.158 6.746 25.571 6.746 5.648 0 9.988-.471 13.021-1.412 3.138-.941 5.386-2.772 6.746-5.491 1.464-2.719 2.196-6.746 2.196-12.08 0-5.438-.366-9.203-1.098-11.295-.732-2.196-2.301-3.661-4.706-4.393-2.406-.732-6.589-1.098-12.551-1.098-.627 0-.941-.418-.941-1.255 0-.314.052-.575.157-.784.209-.314.418-.471.628-.471 8.053.523 14.537.784 19.453.784 4.706 0 9.726-.156 15.06-.47.209 0 .366.157.471.47.209.21.314.419.314.628 0 .732-.262 1.098-.785 1.098-2.719-.104-4.654.262-5.804 1.098-1.151.732-1.883 2.301-2.197 4.707-.313 2.405-.47 6.589-.47 12.55 0 4.706.157 8.053.47 10.04.419 1.988.628 3.243.628 3.766 0 .627-.105 1.045-.314 1.255-.209.209-.68.418-1.412.627-12.236 2.929-23.113 4.393-32.631 4.393ZM954.01 324.383c5.125 0 10.249.523 15.374 1.569 5.23 1.046 9.413 2.458 12.551 4.236.836.523 1.359 1.046 1.568 1.569.314.418.523 1.15.628 2.196l1.726 16.473c0 .313-.262.523-.785.627-.523 0-.837-.157-.941-.471-3.765-15.269-15.845-22.904-36.239-22.904-8.158 0-15.375 1.778-21.65 5.334-6.17 3.451-10.981 8.367-14.433 14.747-3.451 6.379-5.177 13.753-5.177 22.12 0 9.831 2.144 18.93 6.432 27.297 4.288 8.262 9.988 14.851 17.1 19.767 7.112 4.811 14.799 7.216 23.062 7.216 7.739 0 14.38-2.039 19.923-6.118 5.648-4.079 9.779-10.302 12.394-18.669 0-.314.209-.471.627-.471.314 0 .576.053.785.157.314.105.47.262.47.471l-2.196 16.786c-.209 1.255-.471 2.092-.784 2.51-.209.314-.785.68-1.726 1.098-9.308 4.079-19.296 6.119-29.964 6.119-12.55 0-23.009-2.51-31.376-7.531-8.367-5.124-14.538-11.609-18.512-19.453-3.974-7.948-5.961-16.263-5.961-24.944 0-9.517 2.667-18.041 8.001-25.571 5.333-7.635 12.393-13.544 21.178-17.727 8.786-4.288 18.094-6.433 27.925-6.433Zm145.03 97.894c.31 0 .47.313.47.941 0 .627-.16.941-.47.941h-18.2c-2.72 0-7.79-4.497-15.22-13.492-7.42-9.099-16.42-21.649-26.98-37.651a37 37 0 0 1-9.57 1.255c-1.78 0-4.03-.104-6.75-.313v37.494c0 3.242.32 5.595.94 7.059.74 1.465 2.04 2.458 3.93 2.981 1.88.523 4.91.785 9.09.785.32 0 .48.313.48.941 0 .627-.16.941-.48.941-3.13 0-5.64-.052-7.53-.157l-10.66-.157-10.36.157c-1.88.105-4.49.157-7.841.157-.209 0-.314-.314-.314-.941 0-.628.105-.941.314-.941 4.181 0 7.221-.262 9.101-.785 1.98-.523 3.34-1.516 4.08-2.981.73-1.568 1.09-3.922 1.09-7.059v-72.636c0-3.137-.36-5.438-1.09-6.902-.63-1.464-1.94-2.458-3.93-2.981-1.88-.628-4.86-.941-8.94-.941-.311 0-.468-.314-.468-.942 0-.627.157-.941.468-.941l7.53.157c4.19.209 7.64.314 10.36.314 1.88 0 3.66-.052 5.33-.157 1.67-.105 3.14-.209 4.39-.314 3.25-.314 6.12-.47 8.63-.47 8.26 0 14.59 1.725 18.98 5.177 4.4 3.451 6.59 8.262 6.59 14.433 0 5.02-1.46 9.778-4.39 14.276-2.93 4.392-6.8 7.896-11.61 10.511 9.1 13.387 16.68 23.793 22.75 31.219 6.07 7.425 11.45 12.812 16.16 16.158 4.81 3.243 9.52 4.864 14.12 4.864Zm-76.72-52.085c3.98.419 7.11.628 9.42.628 7.63 0 13.12-1.569 16.47-4.706 3.34-3.243 5.02-8.42 5.02-15.532 0-7.948-1.88-13.753-5.65-17.413-3.66-3.661-8.58-5.491-14.75-5.491-2.92 0-5.07.209-6.43.627-1.36.419-2.4 1.412-3.14 2.981-.62 1.569-.94 4.184-.94 7.844v31.062Zm147.86 31.063c0-.314.31-.419.94-.314.63 0 .94.157.94.471-.94 6.589-1.41 13.387-1.41 20.394 0 .837-.21 1.464-.63 1.883-.31.313-.94.47-1.88.47h-64.79c-.21 0-.31-.314-.31-.941 0-.628.1-.941.31-.941 4.08 0 7.06-.262 8.94-.785 1.99-.523 3.3-1.516 3.92-2.981.74-1.568 1.1-3.922 1.1-7.059v-72.636c0-3.137-.36-5.438-1.1-6.902-.62-1.464-1.93-2.458-3.92-2.981-1.88-.628-4.86-.941-8.94-.941-.21 0-.31-.314-.31-.942 0-.627.1-.941.31-.941h62.12c.95 0 1.42.471 1.42 1.412l.31 18.983c0 .313-.31.47-.94.47-.52 0-.79-.157-.79-.47 0-5.334-1.41-9.57-4.23-12.708-2.83-3.137-6.54-4.706-11.14-4.706h-10.82c-3.98 0-6.91.261-8.79.784-1.88.523-3.19 1.517-3.92 2.981-.63 1.464-.94 3.765-.94 6.903v31.846h20.7c4.82 0 8.16-.784 10.05-2.353 1.88-1.673 2.82-4.497 2.82-8.471 0-.21.31-.314.94-.314.63 0 .94.104.94.314l-.16 12.393c0 3.033.06 5.282.16 6.746l.16 7.373c0 .21-.32.314-.94.314-.63 0-.94-.104-.94-.314 0-4.706-1-8.001-2.98-9.883-1.99-1.883-5.5-2.824-10.52-2.824h-20.23v36.239c0 3.033.31 5.282.94 6.746.73 1.36 1.99 2.301 3.76 2.824 1.89.523 4.87.784 8.95.784h14.43c4.18 0 7.74-1.83 10.67-5.49 3.03-3.661 4.96-8.472 5.8-14.433Zm117.61 21.022c.42 0 .63.313.63.941 0 .627-.21.941-.63.941-1.88 0-4.91-.104-9.09-.314-3.98-.209-6.91-.313-8.79-.313-2.2 0-5.07.104-8.63.313-3.35.21-5.86.314-7.53.314-.42 0-.63-.314-.63-.941 0-.628.21-.941.63-.941 4.29 0 7.37-.366 9.26-1.099 1.88-.836 2.82-2.196 2.82-4.078 0-1.465-.57-3.504-1.72-6.119l-18.67-40.004h-29.97l-14.12 33.886c-1.46 3.556-2.19 6.484-2.19 8.785 0 3.033 1.25 5.23 3.76 6.589 2.51 1.36 6.43 2.04 11.77 2.04.52 0 .78.313.78.941 0 .627-.26.941-.78.941-1.88 0-4.6-.104-8.16-.314-3.97-.209-7.43-.313-10.35-.313-2.62 0-5.7.104-9.26.313-3.14.21-5.7.314-7.69.314-.52 0-.78-.314-.78-.941 0-.628.26-.941.78-.941 2.93 0 5.39-.523 7.38-1.569 2.09-1.046 4.02-2.929 5.8-5.648 1.88-2.719 3.87-6.589 5.96-11.609l32.79-78.911c.21-.313.52-.47.94-.47.52 0 .84.157.94.47l36.4 78.127c2.4 5.334 4.55 9.412 6.43 12.236 1.88 2.72 3.71 4.654 5.49 5.805 1.88 1.046 4.03 1.569 6.43 1.569Zm-71.06-54.281h27.45l-14.59-31.062-12.86 31.062Zm87.76-39.22c-6.59 0-11.4 1.569-14.43 4.707-3.04 3.137-5.07 8.733-6.12 16.786 0 .209-.31.313-.94.313-.63 0-.94-.104-.94-.313.42-2.824.89-7.321 1.41-13.492.52-6.275.78-10.982.78-14.119 0-.523.32-.785.94-.785.63 0 .95.262.95.785 0 2.301 2.77 3.451 8.31 3.451 8.99.314 19.51.471 31.53.471 6.17 0 12.71-.105 19.61-.314l10.67-.157c3.77 0 6.54-.261 8.32-.784 1.77-.523 2.92-1.569 3.45-3.138.1-.418.42-.627.94-.627s.78.209.78.627c-.31 2.929-.62 7.426-.94 13.492-.31 5.961-.47 10.825-.47 14.59 0 .209-.31.313-.94.313-.63 0-.94-.104-.94-.313 0-5.543-.58-9.831-1.73-12.864-1.15-3.033-3.08-5.23-5.8-6.589-2.72-1.36-6.54-2.04-11.45-2.04-5.44 0-9.26.209-11.46.628-2.19.313-3.71 1.15-4.55 2.51-.73 1.359-1.09 3.765-1.09 7.216v72.322c0 3.242.36 5.595 1.09 7.059.74 1.465 2.2 2.458 4.4 2.981 2.19.523 5.64.785 10.35.785.21 0 .31.313.31.941 0 .627-.1.941-.31.941-3.45 0-6.17-.052-8.16-.157l-12.08-.157-11.45.157c-2.09.105-4.97.157-8.63.157-.21 0-.31-.314-.31-.941 0-.628.1-.941.31-.941 4.71 0 8.16-.262 10.36-.785 2.19-.523 3.66-1.516 4.39-2.981.84-1.568 1.25-3.922 1.25-7.059v-72.636c0-3.451-.41-5.804-1.25-7.059-.84-1.36-2.35-2.196-4.55-2.51-2.09-.314-5.96-.471-11.61-.471Zm99.83 82.676c0 3.242.31 5.595.94 7.059.73 1.465 2.04 2.458 3.92 2.981 1.89.523 4.92.785 9.1.785.21 0 .32.313.32.941 0 .627-.11.941-.32.941-3.14 0-5.59-.052-7.37-.157l-10.98-.157-10.51.157c-1.89.105-4.45.157-7.69.157-.32 0-.47-.314-.47-.941 0-.628.15-.941.47-.941 4.08 0 7.06-.262 8.94-.785 1.99-.523 3.35-1.516 4.08-2.981.73-1.568 1.1-3.922 1.1-7.059v-72.636c0-3.137-.37-5.438-1.1-6.902-.73-1.464-2.09-2.458-4.08-2.981-1.88-.628-4.86-.941-8.94-.941-.32 0-.47-.314-.47-.942 0-.627.15-.941.47-.941l7.69.157c4.39.209 7.89.314 10.51.314 2.92 0 6.59-.105 10.98-.314l7.37-.157c.21 0 .32.314.32.941 0 .628-.11.942-.32.942-4.08 0-7.11.313-9.1.941-1.88.628-3.19 1.726-3.92 3.294-.63 1.465-.94 3.766-.94 6.903v72.322Zm125.59-85.343c.32 0 .47.314.47.941 0 .628-.15.942-.47.942-3.55 0-6.53.784-8.94 2.353-2.3 1.464-4.34 4.288-6.12 8.471l-34.51 85.186c-.1.419-.68.628-1.73.628-.83 0-1.41-.209-1.72-.628l-38.75-84.872c-1.78-4.079-3.71-6.955-5.81-8.628-1.98-1.674-4.6-2.51-7.84-2.51-.31 0-.47-.314-.47-.942 0-.627.16-.941.47-.941l6.75.157c2.92.209 5.12.314 6.59.314 3.03 0 6.64-.105 10.82-.314l6.75-.157c.31 0 .47.314.47.941 0 .628-.16.942-.47.942-3.25 0-5.7.366-7.38 1.098-1.57.732-2.35 1.987-2.35 3.765 0 1.255.47 2.824 1.41 4.706l34.2 75.46 30.28-75.146c.73-1.778 1.1-3.294 1.1-4.549 0-1.883-1-3.243-2.98-4.079-1.89-.837-5.02-1.255-9.42-1.255-.31 0-.47-.314-.47-.942 0-.627.16-.941.47-.941l6.28.157c3.55.209 6.69.314 9.41.314 2.2 0 4.66-.105 7.38-.314l6.58-.157Zm72.09 75.146c0-.314.31-.419.94-.314.63 0 .94.157.94.471-.94 6.589-1.41 13.387-1.41 20.394 0 .837-.21 1.464-.63 1.883-.31.313-.94.47-1.88.47h-64.79c-.21 0-.32-.314-.32-.941 0-.628.11-.941.32-.941 4.08 0 7.06-.262 8.94-.785 1.99-.523 3.29-1.516 3.92-2.981.73-1.568 1.1-3.922 1.1-7.059v-72.636c0-3.137-.37-5.438-1.1-6.902-.63-1.464-1.93-2.458-3.92-2.981-1.88-.628-4.86-.941-8.94-.941-.21 0-.32-.314-.32-.942 0-.627.11-.941.32-.941h62.12c.94 0 1.41.471 1.41 1.412l.32 18.983c0 .313-.32.47-.94.47-.53 0-.79-.157-.79-.47 0-5.334-1.41-9.57-4.23-12.708-2.83-3.137-6.54-4.706-11.14-4.706h-10.83c-3.97 0-6.9.261-8.78.784-1.88.523-3.19 1.517-3.92 2.981-.63 1.464-.94 3.765-.94 6.903v31.846h20.7c4.81 0 8.16-.784 10.04-2.353 1.89-1.673 2.83-4.497 2.83-8.471 0-.21.31-.314.94-.314.63 0 .94.104.94.314l-.16 12.393c0 3.033.06 5.282.16 6.746l.16 7.373c0 .21-.32.314-.94.314-.63 0-.95-.104-.95-.314 0-4.706-.99-8.001-2.98-9.883-1.98-1.883-5.49-2.824-10.51-2.824h-20.23v36.239c0 3.033.31 5.282.94 6.746.73 1.36 1.98 2.301 3.76 2.824 1.88.523 4.86.784 8.94.784h14.44c4.18 0 7.74-1.83 10.66-5.49 3.04-3.661 4.97-8.472 5.81-14.433Zm30.39-56.163c0 4.183.99 7.791 2.98 10.824 1.99 3.033 4.39 5.596 7.21 7.687 2.93 1.988 6.96 4.498 12.08 7.531 5.44 3.242 9.63 5.961 12.55 8.157 3.04 2.092 5.6 4.811 7.69 8.158 2.2 3.347 3.3 7.374 3.3 12.08 0 4.916-1.21 9.413-3.61 13.492-2.41 3.974-6.02 7.164-10.83 9.569-4.7 2.301-10.51 3.452-17.41 3.452-3.66 0-7.16-.419-10.51-1.255-3.24-.732-6.85-2.092-10.83-4.079-.52-.314-.89-.68-1.09-1.098-.11-.419-.21-1.046-.32-1.883l-2.35-20.394v-.157c0-.419.26-.628.78-.628.53-.104.84.053.94.471 1.05 7.216 3.82 13.492 8.32 18.826 4.5 5.333 10.67 8 18.51 8 5.54 0 10.2-1.516 13.96-4.549 3.87-3.033 5.81-7.792 5.81-14.276 0-4.707-1.05-8.733-3.14-12.08-2.09-3.451-4.65-6.275-7.69-8.471-2.93-2.301-6.95-4.968-12.08-8.001-5.02-2.929-8.99-5.491-11.92-7.687-2.82-2.197-5.28-4.916-7.37-8.158-1.99-3.347-2.98-7.321-2.98-11.923 0-5.229 1.3-9.674 3.92-13.335 2.72-3.66 6.22-6.38 10.51-8.158 4.29-1.882 8.89-2.824 13.8-2.824 5.76 0 11.72 1.256 17.89 3.766 1.57.627 2.35 1.516 2.35 2.667l1.41 16.629c0 .418-.31.627-.94.627-.52 0-.83-.209-.94-.627-.42-5.439-2.46-10.302-6.12-14.59s-8.89-6.432-15.68-6.432c-6.28 0-10.88 1.83-13.81 5.491-2.93 3.66-4.39 8.053-4.39 13.178Z" fill="#4A4A45"/>
</svg>
