
<svg width="259" height="108" fill="none" xmlns="http://www.w3.org/2000/svg">
  <path d="M68.757 40.424c.128 0 .192.096.192.288 0 .192-.064.288-.192.288-.576 0-1.504-.032-2.784-.096a56.78 56.78 0 0 0-2.688-.096c-.672 0-1.552.032-2.64.096a40.425 40.425 0 0 1-2.304.096c-.128 0-.192-.096-.192-.288 0-.192.064-.288.192-.288 1.312 0 2.256-.112 2.832-.336.576-.256.864-.672.864-1.248 0-.448-.176-1.072-.528-1.872l-5.712-12.24H46.63l-4.32 10.368c-.448 1.088-.672 1.984-.672 2.688 0 .928.384 1.6 1.152 2.016.768.416 1.968.624 3.6.624.16 0 .24.096.24.288 0 .192-.08.288-.24.288-.576 0-1.408-.032-2.496-.096a61.344 61.344 0 0 0-3.168-.096c-.8 0-1.744.032-2.832.096a36.78 36.78 0 0 1-2.352.096c-.16 0-.24-.096-.24-.288 0-.192.08-.288.24-.288.896 0 1.648-.16 2.256-.48.64-.32 1.232-.896 1.776-1.728.576-.832 1.184-2.016 1.824-3.552L51.43 10.52a.323.323 0 0 1 .288-.144c.16 0 .256.048.288.144l11.136 23.904c.736 1.632 1.392 2.88 1.968 3.744.576.832 1.136 1.424 1.68 1.776.576.32 1.232.48 1.968.48ZM47.013 23.816h8.4l-4.464-9.504-3.936 9.504Zm60.234 16.608c.096 0 .144.096.144.288 0 .192-.048.288-.144.288a44.78 44.78 0 0 1-2.352-.048l-3.216-.048-2.976.048c-.48.032-1.152.048-2.016.048-.064 0-.096-.096-.096-.288 0-.192.032-.288.096-.288 1.12 0 1.936-.08 2.448-.24.544-.192.896-.512 1.056-.96.192-.448.256-1.152.192-2.112l-.816-22.32-11.232 25.872c-.064.128-.192.192-.384.192a.597.597 0 0 1-.432-.192l-11.712-25.68-.048-.096-.384 21.12c-.032 1.664.24 2.816.816 3.456.576.64 1.648.96 3.216.96.064 0 .096.096.096.288 0 .192-.032.288-.096.288-.896 0-1.584-.016-2.064-.048l-2.592-.048-2.352.048c-.416.032-1.04.048-1.872.048-.064 0-.096-.096-.096-.288 0-.192.032-.288.096-.288 1.344 0 2.288-.32 2.832-.96.576-.672.88-1.824.912-3.456l.48-22.752c-.992-1.12-2.288-1.68-3.888-1.68-.064 0-.096-.096-.096-.288 0-.192.032-.288.096-.288l1.632.048c.32.032.736.048 1.248.048s.944-.016 1.296-.048c.352-.032.624-.048.816-.048.448 0 .8.16 1.056.48.256.288.64.96 1.152 2.016l10.8 23.328L99.615 12.2c.16-.352.368-.64.624-.864.288-.224.56-.336.816-.336.128 0 .336.016.624.048s.688.048 1.2.048l2.16-.048c.32-.032.816-.048 1.488-.048.064 0 .096.096.096.288 0 .192-.032.288-.096.288-1.664 0-2.848.224-3.552.672-.672.416-.992 1.264-.96 2.544l.912 22.32c.032.992.144 1.712.336 2.16.224.448.624.752 1.2.912.608.16 1.536.24 2.784.24Zm18.226 1.152c-2.976 0-5.632-.688-7.968-2.064a14.745 14.745 0 0 1-5.376-5.664c-1.248-2.4-1.872-5.008-1.872-7.824 0-3.296.832-6.112 2.496-8.448 1.664-2.368 3.792-4.144 6.384-5.328 2.624-1.184 5.296-1.776 8.016-1.776 3.04 0 5.712.72 8.016 2.16 2.304 1.408 4.064 3.28 5.28 5.616a15.561 15.561 0 0 1 1.872 7.44c0 2.912-.768 5.584-2.304 8.016-1.536 2.432-3.6 4.352-6.192 5.76-2.56 1.408-5.344 2.112-8.352 2.112Zm1.728-.96c2.272 0 4.32-.528 6.144-1.584 1.824-1.056 3.264-2.608 4.32-4.656 1.056-2.048 1.584-4.496 1.584-7.344 0-3.008-.592-5.68-1.776-8.016-1.152-2.368-2.8-4.208-4.944-5.52-2.112-1.312-4.576-1.968-7.392-1.968-3.712 0-6.608 1.152-8.688 3.456-2.08 2.304-3.12 5.44-3.12 9.408 0 2.976.576 5.712 1.728 8.208 1.184 2.464 2.832 4.416 4.944 5.856 2.112 1.44 4.512 2.16 7.2 2.16Zm-6.912-34.368c-.064 0-.128-.064-.192-.192a1.785 1.785 0 0 1-.048-.432c0-.416.08-.624.24-.624h12.048c.16 0 .24.208.24.624 0 .416-.08.624-.24.624h-12.048ZM177.757 11c.096 0 .144.096.144.288 0 .192-.048.288-.144.288-1.376 0-2.352.336-2.928 1.008-.544.672-.816 1.824-.816 3.456v25.488c0 .064-.08.112-.24.144-.16.032-.272.016-.336-.048l-21.696-26.688-.816-.912v21.984c0 1.632.272 2.784.816 3.456.544.64 1.488.96 2.832.96.096 0 .144.096.144.288 0 .192-.048.288-.144.288-.768 0-1.36-.016-1.776-.048l-2.304-.048-2.352.048c-.416.032-1.04.048-1.872.048-.064 0-.096-.096-.096-.288 0-.192.032-.288.096-.288 1.376 0 2.32-.32 2.832-.96.512-.64.768-1.792.768-3.456V13.016c-1.12-.96-2.272-1.44-3.456-1.44-.096 0-.144-.096-.144-.288 0-.192.048-.288.144-.288l1.728.048c.352.032.848.048 1.488.048.544 0 .992-.016 1.344-.048.352-.032.624-.048.816-.048.224 0 .4.064.528.192.16.096.336.32.528.672.352.576.736 1.12 1.152 1.632l18.96 23.568V16.04c0-1.632-.256-2.784-.768-3.456-.512-.672-1.44-1.008-2.784-1.008-.064 0-.096-.096-.096-.288 0-.192.032-.288.096-.288l1.824.048c.96.064 1.728.096 2.304.096.544 0 1.328-.032 2.352-.096l1.872-.048Zm20.171 30.576c-3.488 0-6.528-.672-9.12-2.016-2.56-1.344-4.528-3.168-5.904-5.472-1.344-2.304-2.016-4.88-2.016-7.728 0-3.104.784-5.856 2.352-8.256 1.6-2.4 3.776-4.272 6.528-5.616 2.784-1.344 5.92-2.016 9.408-2.016 1.568 0 3.04.16 4.416.48 1.408.32 2.576.768 3.504 1.344.224.16.352.304.384.432a.682.682 0 0 1 .096.384c.032.128.048.224.048.288l.576 5.04c0 .096-.096.16-.288.192-.16 0-.256-.048-.288-.144-.608-2.272-1.808-4-3.6-5.184-1.792-1.216-4.064-1.824-6.816-1.824-4.224 0-7.504 1.168-9.84 3.504-2.336 2.336-3.504 5.568-3.504 9.696 0 3.072.656 5.84 1.968 8.304 1.312 2.432 3.12 4.336 5.424 5.712 2.336 1.376 4.944 2.064 7.824 2.064 1.728 0 3.056-.144 3.984-.432.96-.288 1.648-.848 2.064-1.68.448-.832.672-2.064.672-3.696 0-1.664-.112-2.816-.336-3.456-.224-.672-.704-1.12-1.44-1.344-.736-.224-2.016-.336-3.84-.336-.192 0-.288-.128-.288-.384 0-.096.016-.176.048-.24.064-.096.128-.144.192-.144 2.464.16 4.448.24 5.952.24 1.44 0 2.976-.048 4.608-.144.064 0 .112.048.144.144.064.064.096.128.096.192 0 .224-.08.336-.24.336-.832-.032-1.424.08-1.776.336-.352.224-.576.704-.672 1.44-.096.736-.144 2.016-.144 3.84 0 1.44.048 2.464.144 3.072.128.608.192.992.192 1.152 0 .192-.032.32-.096.384s-.208.128-.432.192c-3.744.896-7.072 1.344-9.984 1.344ZM27.655 70.472c1.568 0 3.136.16 4.704.48 1.6.32 2.88.752 3.84 1.296.256.16.416.32.48.48.096.128.16.352.192.672l.528 5.04c0 .096-.08.16-.24.192-.16 0-.256-.048-.288-.144-1.152-4.672-4.848-7.008-11.088-7.008-2.496 0-4.704.544-6.624 1.632-1.888 1.056-3.36 2.56-4.416 4.512-1.056 1.952-1.584 4.208-1.584 6.768 0 3.008.656 5.792 1.968 8.352 1.312 2.528 3.056 4.544 5.232 6.048 2.176 1.472 4.528 2.208 7.056 2.208 2.368 0 4.4-.624 6.096-1.872 1.728-1.248 2.992-3.152 3.792-5.712 0-.096.064-.144.192-.144.096 0 .176.016.24.048.096.032.144.08.144.144l-.672 5.136c-.064.384-.144.64-.24.768-.064.096-.24.208-.528.336-2.848 1.248-5.904 1.872-9.168 1.872-3.84 0-7.04-.768-9.6-2.304-2.56-1.568-4.448-3.552-5.664-5.952-1.216-2.432-1.824-4.976-1.824-7.632 0-2.912.816-5.52 2.448-7.824 1.632-2.336 3.792-4.144 6.48-5.424a19.23 19.23 0 0 1 8.544-1.968Zm44.284 29.952c.096 0 .144.096.144.288 0 .192-.048.288-.144.288H66.37c-.832 0-2.384-1.376-4.656-4.128-2.272-2.784-5.024-6.624-8.256-11.52-.96.256-1.936.384-2.928.384-.544 0-1.232-.032-2.064-.096v11.472c0 .992.096 1.712.288 2.16.224.448.624.752 1.2.912.576.16 1.504.24 2.784.24.096 0 .144.096.144.288 0 .192-.048.288-.144.288-.96 0-1.728-.016-2.304-.048l-3.264-.048-3.168.048c-.576.032-1.376.048-2.4.048-.064 0-.096-.096-.096-.288 0-.192.032-.288.096-.288 1.28 0 2.208-.08 2.784-.24.608-.16 1.024-.464 1.248-.912.224-.48.336-1.2.336-2.16V74.888c0-.96-.112-1.664-.336-2.112-.192-.448-.592-.752-1.2-.912-.576-.192-1.488-.288-2.736-.288-.096 0-.144-.096-.144-.288 0-.192.048-.288.144-.288l2.304.048c1.28.064 2.336.096 3.168.096.576 0 1.12-.016 1.632-.048.512-.032.96-.064 1.344-.096a27.751 27.751 0 0 1 2.64-.144c2.528 0 4.464.528 5.808 1.584 1.344 1.056 2.016 2.528 2.016 4.416 0 1.536-.448 2.992-1.344 4.368-.896 1.344-2.08 2.416-3.552 3.216 2.784 4.096 5.104 7.28 6.96 9.552 1.856 2.272 3.504 3.92 4.944 4.944 1.472.992 2.912 1.488 4.32 1.488ZM48.467 84.488c1.216.128 2.176.192 2.88.192 2.336 0 4.016-.48 5.04-1.44 1.024-.992 1.536-2.576 1.536-4.752 0-2.432-.576-4.208-1.728-5.328-1.12-1.12-2.624-1.68-4.512-1.68-.896 0-1.552.064-1.968.192-.416.128-.736.432-.96.912-.192.48-.288 1.28-.288 2.4v9.504Zm45.15 9.504c0-.096.095-.128.287-.096.192 0 .288.048.288.144a44.084 44.084 0 0 0-.432 6.24c0 .256-.064.448-.192.576-.096.096-.288.144-.576.144H73.168c-.064 0-.096-.096-.096-.288 0-.192.032-.288.096-.288 1.248 0 2.16-.08 2.736-.24.608-.16 1.008-.464 1.2-.912.224-.48.336-1.2.336-2.16V74.888c0-.96-.112-1.664-.336-2.112-.192-.448-.592-.752-1.2-.912-.576-.192-1.488-.288-2.736-.288-.064 0-.096-.096-.096-.288 0-.192.032-.288.096-.288h19.008c.288 0 .432.144.432.432l.096 5.808c0 .096-.096.144-.288.144-.16 0-.24-.048-.24-.144 0-1.632-.432-2.928-1.296-3.888-.864-.96-2-1.44-3.408-1.44H84.16c-1.216 0-2.112.08-2.688.24-.576.16-.976.464-1.2.912-.192.448-.288 1.152-.288 2.112v9.744h6.336c1.472 0 2.496-.24 3.072-.72.576-.512.864-1.376.864-2.592 0-.064.096-.096.288-.096.192 0 .288.032.288.096l-.048 3.792c0 .928.016 1.616.048 2.064l.048 2.256c0 .064-.096.096-.288.096-.192 0-.288-.032-.288-.096 0-1.44-.304-2.448-.912-3.024-.608-.576-1.68-.864-3.216-.864h-6.192V96.92c0 .928.096 1.616.288 2.064.224.416.608.704 1.152.864.576.16 1.488.24 2.736.24h4.416c1.28 0 2.368-.56 3.264-1.68.928-1.12 1.52-2.592 1.776-4.416Zm35.895 6.432c.128 0 .192.096.192.288 0 .192-.064.288-.192.288-.576 0-1.504-.032-2.784-.096a56.78 56.78 0 0 0-2.688-.096c-.672 0-1.552.032-2.64.096a40.425 40.425 0 0 1-2.304.096c-.128 0-.192-.096-.192-.288 0-.192.064-.288.192-.288 1.312 0 2.256-.112 2.832-.336.576-.256.864-.672.864-1.248 0-.448-.176-1.072-.528-1.872l-5.712-12.24h-9.168l-4.32 10.368c-.448 1.088-.672 1.984-.672 2.688 0 .928.384 1.6 1.152 2.016.768.416 1.968.624 3.6.624.16 0 .24.096.24.288 0 .192-.08.288-.24.288-.576 0-1.408-.032-2.496-.096a61.344 61.344 0 0 0-3.168-.096c-.8 0-1.744.032-2.832.096a36.78 36.78 0 0 1-2.352.096c-.16 0-.24-.096-.24-.288 0-.192.08-.288.24-.288.896 0 1.648-.16 2.256-.48.64-.32 1.232-.896 1.776-1.728.576-.832 1.184-2.016 1.824-3.552l10.032-24.144a.323.323 0 0 1 .288-.144c.16 0 .256.048.288.144l11.136 23.904c.736 1.632 1.392 2.88 1.968 3.744.576.832 1.136 1.424 1.68 1.776.576.32 1.232.48 1.968.48Zm-21.744-16.608h8.4l-4.464-9.504-3.936 9.504Zm26.763-12c-2.016 0-3.488.48-4.416 1.44-.928.96-1.552 2.672-1.872 5.136 0 .064-.096.096-.288.096-.192 0-.288-.032-.288-.096.128-.864.272-2.24.432-4.128.16-1.92.24-3.36.24-4.32 0-.16.096-.24.288-.24.192 0 .288.08.288.24 0 .704.848 1.056 2.544 1.056 2.752.096 5.968.144 9.648.144 1.888 0 3.888-.032 6-.096l3.264-.048c1.152 0 2-.08 2.544-.24.544-.16.896-.48 1.056-.96.032-.128.128-.192.288-.192.16 0 .24.064.24.192-.096.896-.192 2.272-.288 4.128a88.378 88.378 0 0 0-.144 4.464c0 .064-.096.096-.288.096-.192 0-.288-.032-.288-.096 0-1.696-.176-3.008-.528-3.936-.352-.928-.944-1.6-1.776-2.016-.832-.416-2-.624-3.504-.624-1.664 0-2.832.064-3.504.192-.672.096-1.136.352-1.392.768-.224.416-.336 1.152-.336 2.208v22.128c0 .992.112 1.712.336 2.16.224.448.672.752 1.344.912.672.16 1.728.24 3.168.24.064 0 .096.096.096.288 0 .192-.032.288-.096.288-1.056 0-1.888-.016-2.496-.048l-3.696-.048-3.504.048c-.64.032-1.52.048-2.64.048-.064 0-.096-.096-.096-.288 0-.192.032-.288.096-.288 1.44 0 2.496-.08 3.168-.24.672-.16 1.12-.464 1.344-.912.256-.48.384-1.2.384-2.16V74.888c0-1.056-.128-1.776-.384-2.16-.256-.416-.72-.672-1.392-.768-.64-.096-1.824-.144-3.552-.144Zm30.454 25.296c0 .992.096 1.712.288 2.16.224.448.624.752 1.2.912.576.16 1.504.24 2.784.24.064 0 .096.096.096.288 0 .192-.032.288-.096.288-.96 0-1.712-.016-2.256-.048l-3.36-.048-3.216.048a44.78 44.78 0 0 1-2.352.048c-.096 0-.144-.096-.144-.288 0-.192.048-.288.144-.288 1.248 0 2.16-.08 2.736-.24.608-.16 1.024-.464 1.248-.912.224-.48.336-1.2.336-2.16V74.888c0-.96-.112-1.664-.336-2.112-.224-.448-.64-.752-1.248-.912-.576-.192-1.488-.288-2.736-.288-.096 0-.144-.096-.144-.288 0-.192.048-.288.144-.288l2.352.048a71.12 71.12 0 0 0 3.216.096c.896 0 2.016-.032 3.36-.096l2.256-.048c.064 0 .096.096.096.288 0 .192-.032.288-.096.288-1.248 0-2.176.096-2.784.288-.576.192-.976.528-1.2 1.008-.192.448-.288 1.152-.288 2.112v22.128ZM203.323 71c.096 0 .144.096.144.288 0 .192-.048.288-.144.288-1.088 0-2 .24-2.736.72-.704.448-1.328 1.312-1.872 2.592l-10.56 26.064c-.032.128-.208.192-.528.192-.256 0-.432-.064-.528-.192l-11.856-25.968c-.544-1.248-1.136-2.128-1.776-2.64-.608-.512-1.408-.768-2.4-.768-.096 0-.144-.096-.144-.288 0-.192.048-.288.144-.288l2.064.048c.896.064 1.568.096 2.016.096.928 0 2.032-.032 3.312-.096l2.064-.048c.096 0 .144.096.144.288 0 .192-.048.288-.144.288-.992 0-1.744.112-2.256.336-.48.224-.72.608-.72 1.152 0 .384.144.864.432 1.44l10.464 23.088 9.264-22.992c.224-.544.336-1.008.336-1.392 0-.576-.304-.992-.912-1.248-.576-.256-1.536-.384-2.88-.384-.096 0-.144-.096-.144-.288 0-.192.048-.288.144-.288l1.92.048c1.088.064 2.048.096 2.88.096.672 0 1.424-.032 2.256-.096l2.016-.048Zm21.965 22.992c0-.096.096-.128.288-.096.192 0 .288.048.288.144a44.084 44.084 0 0 0-.432 6.24c0 .256-.064.448-.192.576-.096.096-.288.144-.576.144H204.84c-.064 0-.096-.096-.096-.288 0-.192.032-.288.096-.288 1.248 0 2.16-.08 2.736-.24.608-.16 1.008-.464 1.2-.912.224-.48.336-1.2.336-2.16V74.888c0-.96-.112-1.664-.336-2.112-.192-.448-.592-.752-1.2-.912-.576-.192-1.488-.288-2.736-.288-.064 0-.096-.096-.096-.288 0-.192.032-.288.096-.288h19.008c.288 0 .432.144.432.432l.096 5.808c0 .096-.096.144-.288.144-.16 0-.24-.048-.24-.144 0-1.632-.432-2.928-1.296-3.888-.864-.96-2-1.44-3.408-1.44h-3.312c-1.216 0-2.112.08-2.688.24-.576.16-.976.464-1.2.912-.192.448-.288 1.152-.288 2.112v9.744h6.336c1.472 0 2.496-.24 3.072-.72.576-.512.864-1.376.864-2.592 0-.064.096-.096.288-.096.192 0 .288.032.288.096l-.048 3.792c0 .928.016 1.616.048 2.064l.048 2.256c0 .064-.096.096-.288.096-.192 0-.288-.032-.288-.096 0-1.44-.304-2.448-.912-3.024-.608-.576-1.68-.864-3.216-.864h-6.192V96.92c0 .928.096 1.616.288 2.064.224.416.608.704 1.152.864.576.16 1.488.24 2.736.24h4.416c1.28 0 2.368-.56 3.264-1.68.928-1.12 1.52-2.592 1.776-4.416Zm9.208-17.184c0 1.28.304 2.384.912 3.312a9.111 9.111 0 0 0 2.208 2.352c.896.608 2.128 1.376 3.696 2.304 1.664.992 2.944 1.824 3.84 2.496.928.64 1.712 1.472 2.352 2.496.672 1.024 1.008 2.256 1.008 3.696 0 1.504-.368 2.88-1.104 4.128-.736 1.216-1.84 2.192-3.312 2.928-1.44.704-3.216 1.056-5.328 1.056-1.12 0-2.192-.128-3.216-.384-.992-.224-2.096-.64-3.312-1.248a.844.844 0 0 1-.336-.336 5.264 5.264 0 0 1-.096-.576l-.72-6.24v-.048c0-.128.08-.192.24-.192.16-.032.256.016.288.144.32 2.208 1.168 4.128 2.544 5.76 1.376 1.632 3.264 2.448 5.664 2.448 1.696 0 3.12-.464 4.272-1.392 1.184-.928 1.776-2.384 1.776-4.368 0-1.44-.32-2.672-.96-3.696-.64-1.056-1.424-1.92-2.352-2.592-.896-.704-2.128-1.52-3.696-2.448-1.536-.896-2.752-1.68-3.648-2.352a9.978 9.978 0 0 1-2.256-2.496c-.608-1.024-.912-2.24-.912-3.648 0-1.6.4-2.96 1.2-4.08a7.513 7.513 0 0 1 3.216-2.496c1.312-.576 2.72-.864 4.224-.864 1.76 0 3.584.384 5.472 1.152.48.192.72.464.72.816l.432 5.088c0 .128-.096.192-.288.192-.16 0-.256-.064-.288-.192-.128-1.664-.752-3.152-1.872-4.464-1.12-1.312-2.72-1.968-4.8-1.968-1.92 0-3.328.56-4.224 1.68-.896 1.12-1.344 2.464-1.344 4.032Z" fill="#4A4A45"/>
</svg>
